<svg width="329" height="102" viewBox="0 0 329 102" fill="none" xmlns="http://www.w3.org/2000/svg">
<path d="M28.196 0.125172L2.0061 0.187757L12.8957 9.95109C18.8887 15.3209 23.8725 19.7269 23.9597 19.752C24.0968 19.777 54.0245 10.0637 54.174 9.93857C54.2488 9.8885 56.3171 0.475651 56.3171 0.225309C56.3171 0.0250359 56.2049 1.90735e-06 55.3577 0.0250359C54.8219 0.0500698 42.5992 0.0876217 28.196 0.125172Z" fill="#183861"/>
<path d="M58.8711 0.150226C58.7215 0.588325 56.9274 8.91219 56.9772 8.96226C57.0271 9.02484 84.2261 0.162744 84.3383 0.0500889C84.3632 0.0250549 78.6567 2.09808e-05 71.6545 2.09808e-05C61.5872 2.09808e-05 58.9084 0.0375719 58.8711 0.150226Z" fill="#183861"/>
<path d="M72.0783 6.63413C63.5186 9.45047 56.4416 11.7912 56.3669 11.8538C56.2298 11.9414 50.1496 39.0409 50.2493 39.1285C50.2617 39.1535 58.7217 30.692 69.0257 20.3403C79.3422 9.97619 87.7524 1.50212 87.715 1.51464C87.6776 1.51464 80.6504 3.81778 72.0783 6.63413Z" fill="#183861"/>
<path d="M2.56667 4.65635C4.92151 10.1889 14.2412 31.9937 14.2786 32.0312C14.3284 32.0938 43.1473 40.4302 43.1846 40.3926C43.222 40.3551 2.35486 3.70506 2.2178 3.65498C2.16796 3.62995 2.31748 4.08057 2.56667 4.65635Z" fill="#183861"/>
<path d="M0.0373702 16.3849L0.0622892 27.9507L5.59431 29.5529C8.64689 30.4416 11.1512 31.1425 11.1762 31.1175C11.2011 31.0925 8.69672 25.1719 5.61923 17.9495L0.0124512 4.81911L0.0373702 16.3849Z" fill="#183861"/>
<path d="M39.8081 17.1985C32.4072 19.6268 26.2771 21.6421 26.1899 21.6671C26.1027 21.6921 30.8124 26.0105 36.6559 31.2552C45.0162 38.7404 47.3088 40.7431 47.3711 40.5804C47.4209 40.4552 48.8039 34.2843 50.461 26.8492C52.1057 19.414 53.4762 13.2055 53.5136 13.0428C53.551 12.8676 53.5261 12.7674 53.4264 12.78C53.3392 12.78 47.2091 14.7702 39.8081 17.1985Z" fill="#183861"/>
<path d="M192.873 15.6589C190.207 15.9969 188.039 17.3613 187.167 19.2513C186.868 19.8897 186.83 20.115 186.83 21.3417C186.83 22.5809 186.868 22.7937 187.179 23.4571C187.964 25.1344 188.973 25.9104 192.2 27.2748C194.406 28.2136 195.988 29.1148 196.461 29.7282C196.823 30.1788 197.01 30.9048 196.91 31.4305C196.549 33.3957 194.281 34.397 191.453 33.8713C189.995 33.5834 188.176 32.92 187.191 32.3067C186.755 32.0313 186.394 31.8686 186.394 31.9562C186.394 32.2191 187.403 35.8615 187.49 35.9491C187.54 35.9992 188.039 36.1745 188.574 36.3247C189.447 36.55 189.908 36.5875 192.125 36.6C194.58 36.6125 194.717 36.6 195.676 36.2746C197.745 35.5611 199.252 34.347 200.05 32.7323C200.436 31.9437 200.511 31.6433 200.56 30.7045C200.673 28.7268 200.149 27.5627 198.642 26.4487C197.333 25.4849 196.885 25.222 195.352 24.5961C192.225 23.3069 191.054 22.5684 190.618 21.6046C190.331 20.9787 190.319 20.5406 190.568 19.9273C190.967 18.976 191.889 18.3752 193.346 18.1373C195.016 17.862 196.536 18.2875 198.106 19.4641L198.542 19.7896L198.579 18.0122C198.592 17.0358 198.567 16.1847 198.517 16.1346C198.467 16.0845 197.844 15.9218 197.147 15.7841C195.826 15.5087 194.343 15.4712 192.873 15.6589Z" fill="#183861"/>
<path d="M124.794 16.3598C125.043 16.6853 125.293 17.0858 125.355 17.2486C125.417 17.4113 125.467 21.3291 125.467 25.9855C125.467 35.3608 125.504 34.9227 124.62 35.8239L124.171 36.2996H130.737C134.351 36.2996 137.304 36.287 137.304 36.262C137.304 36.237 137.615 35.3357 137.989 34.2468C138.375 33.1453 138.649 32.2315 138.624 32.2065C138.587 32.1689 138.412 32.2565 138.213 32.3942C137.466 32.9199 136.294 33.4206 135.298 33.6209C134.463 33.7836 133.865 33.8212 132.195 33.7586C131.061 33.7085 129.94 33.6334 129.703 33.5834L129.267 33.4707V29.9784V26.4736L130.812 26.4987C132.781 26.5237 133.042 26.5738 133.802 27.0995L134.438 27.5376V25.7852V24.0328H131.821H129.205V21.2791V18.5253H131.846C134.425 18.5253 134.488 18.5253 135.011 18.8382C135.298 19.0135 135.684 19.3389 135.858 19.5517L136.182 19.9648V17.8619V15.7715H130.264H124.346L124.794 16.3598Z" fill="#183861"/>
<path d="M141.353 16.2847C142.263 17.2986 142.213 16.7854 142.175 25.8478C142.15 34.8726 142.15 34.8351 141.353 35.7738L140.892 36.2996H145.377C151.42 36.2996 153.289 36.0868 155.183 35.173C157.301 34.1466 159.544 31.3178 160.167 28.8519C160.628 27.087 160.628 24.5335 160.167 22.7811C159.482 20.1275 157.476 17.9245 154.747 16.823C152.654 15.9718 150.872 15.7715 145.103 15.7715H140.892L141.353 16.2847ZM151.383 18.6505C154.074 19.4265 155.893 21.3166 156.429 23.8826C156.666 24.9716 156.666 26.8617 156.429 27.9757C155.856 30.7044 153.862 32.7447 151.009 33.5083C150.162 33.7336 146.698 33.8337 146.237 33.6459C146.038 33.5583 146.025 33.1077 146.05 26.0105L146.088 18.4752L146.399 18.3751C146.574 18.325 147.558 18.3 148.579 18.325C150.037 18.3626 150.648 18.4377 151.383 18.6505Z" fill="#183861"/>
<path d="M164.179 16.1721C164.403 16.3974 164.69 16.8355 164.827 17.1485C165.076 17.6867 165.088 17.9496 165.088 24.1205C165.088 27.8381 165.138 30.9298 165.213 31.5056C165.562 34.0591 167.182 35.7113 170.06 36.4373C170.957 36.6626 171.356 36.6876 172.863 36.6376C175.206 36.5625 176.701 36.1244 178.146 35.0855L178.732 34.6724L178.769 35.486L178.806 36.2996H181.361H183.915L183.304 35.6988C182.806 35.2106 182.656 34.9728 182.544 34.4346C182.457 33.9965 182.407 31.2803 182.407 25.9855C182.407 17.3362 182.395 17.4364 183.217 16.3599L183.666 15.7716H180.675H177.685L178.109 16.41C178.345 16.7604 178.594 17.2611 178.669 17.5365C178.756 17.8745 178.794 20.1275 178.769 24.3208L178.732 30.6043L178.433 31.3428C177.797 32.945 176.464 33.7712 174.346 33.8963C172.925 33.9714 171.866 33.7712 170.907 33.258C170.06 32.8199 169.661 32.3692 169.212 31.4179L168.889 30.7295L168.851 24.3833C168.826 20.2026 168.864 17.8745 168.951 17.549C169.013 17.2736 169.3 16.7604 169.586 16.41L170.097 15.7716H166.945H163.793L164.179 16.1721Z" fill="#183861"/>
<path d="M204.186 16.2347C205.009 17.2986 204.959 16.6478 204.959 26.0356C204.959 35.5611 205.009 35.0103 204.074 35.8615L203.588 36.2996H206.404H209.22L208.659 35.7488C208.323 35.4234 208.036 35.0103 207.949 34.7224C207.862 34.3845 207.824 32.2816 207.849 27.8631L207.887 21.4794L213.07 27.9882C215.923 31.5556 218.565 34.7725 218.938 35.1355C219.985 36.1118 221.231 36.8754 222.19 37.1007L222.527 37.1758V27.3499C222.527 16.5852 222.477 17.3112 223.249 16.2973C223.424 16.072 223.536 15.8592 223.499 15.8341C223.461 15.7966 222.327 15.7841 220.982 15.7966L218.515 15.8341L218.901 16.3098C219.673 17.2986 219.673 17.211 219.636 24.0579L219.599 30.2663L213.917 23.0565L208.236 15.8341L206.03 15.7966L203.813 15.7716L204.186 16.2347Z" fill="#183861"/>
<path d="M85.9332 37.1382C75.7413 44.6234 67.4184 50.7568 67.4433 50.7693C67.5056 50.8319 96.1001 41.8196 96.2123 41.707C96.3743 41.5442 104.647 23.5321 104.56 23.5447C104.51 23.5447 96.1375 29.6655 85.9332 37.1382Z" fill="#183861"/>
<path d="M102.953 32.9575C101.009 37.1633 99.4641 40.6305 99.4891 40.6681C99.5514 40.7181 106.392 38.6028 106.491 38.5026C106.516 38.4901 106.516 35.511 106.504 31.8936L106.466 25.3221L102.953 32.9575Z" fill="#183861"/>
<path d="M0 60.0695V89.6849L12.6838 76.9425L25.38 64.2001L18.9509 49.1296L12.5218 34.0715L11.1513 33.6835C10.4037 33.4707 7.57538 32.6571 4.89658 31.881L0 30.4541V60.0695Z" fill="#183861"/>
<path d="M14.8268 34.3469C14.8268 34.4971 27.0371 62.8984 27.1243 62.9234C27.2364 62.961 46.5487 43.597 46.4739 43.5219C46.4365 43.4844 39.4592 41.4566 30.9618 39.0033C22.4645 36.5499 15.3625 34.4846 15.1756 34.422C14.9763 34.3594 14.8268 34.3219 14.8268 34.3469Z" fill="#183861"/>
<path d="M102.292 42.3954C99.9999 43.1213 98.0811 43.7472 98.0188 43.7973C97.8444 43.9725 84.2137 73.663 84.2511 73.8132C84.276 73.8883 89.2847 78.432 95.3774 83.8895L106.466 93.8406L106.504 80.6476C106.516 73.4002 106.516 61.534 106.504 54.2741L106.466 41.0811L102.292 42.3954Z" fill="#183861"/>
<path d="M309.681 44.7236C309.145 44.8738 308.323 44.9739 307.55 44.9739L306.292 44.999L306.653 45.4496C306.84 45.6874 307.064 46.088 307.127 46.3258C307.314 46.9641 307.289 63.4241 307.102 63.9749C307.027 64.2127 306.803 64.6132 306.603 64.8636L306.23 65.3392H309.008H311.787L311.4 64.9262C310.64 64.1251 310.678 64.7384 310.615 54.199L310.553 44.4983L309.681 44.7236Z" fill="#183861"/>
<path d="M78.7813 49.793C70.1219 52.5217 63.0449 54.7873 63.0449 54.8249C63.0449 54.9 82.0706 72.0108 82.2201 72.0609C82.2699 72.0859 94.4429 45.8126 94.7917 44.9113C94.8167 44.8613 94.7668 44.8112 94.6671 44.8237C94.5799 44.8237 87.4282 47.0643 78.7813 49.793Z" fill="#183861"/>
<path d="M124.707 45.2493C125.592 46.2632 125.529 45.5748 125.529 55.0126C125.529 64.5381 125.592 63.8497 124.62 64.8636L124.171 65.3392H127.386H130.6L130.139 64.826C129.292 63.8747 129.329 64.3504 129.329 55.0502C129.329 45.75 129.292 46.2131 130.127 45.2118L130.476 44.8112H127.398H124.321L124.707 45.2493Z" fill="#183861"/>
<path d="M242.674 45.1115C240.88 45.7749 240.693 48.2408 242.375 49.0544C243.06 49.3924 243.608 49.3924 244.293 49.0544C245.066 48.6789 245.452 48.053 245.452 47.2144C245.452 45.6497 244.057 44.5983 242.674 45.1115Z" fill="#183861"/>
<path d="M156.118 46.9016C156.118 47.8279 155.831 49.1422 155.507 49.7805C155.021 50.7443 154.361 51.1824 152.666 51.6456C152.567 51.6706 152.504 51.9084 152.504 52.2464V52.8097L153.414 52.8472L154.311 52.8848L154.373 57.7664C154.436 63.1363 154.436 63.0486 155.258 64.1001C155.906 64.9262 157.065 65.4519 158.684 65.6522L159.32 65.7273L160.279 64.5006L161.239 63.2739L160.454 63.1988C159.444 63.1112 158.435 62.6606 158.074 62.1599C157.8 61.7719 157.8 61.7218 157.8 57.3283V52.8848L158.522 52.8472C159.619 52.7846 160.578 53.0099 161.126 53.4606L161.6 53.8361V52.3215V50.8194H159.669H157.737V48.5038V46.1881H156.928H156.118V46.9016Z" fill="#183861"/>
<path d="M232.744 46.7764C232.744 47.6776 232.507 48.9168 232.22 49.5927C231.759 50.6692 231.062 51.1574 229.292 51.6455C229.193 51.6706 229.13 51.9084 229.13 52.2464V52.8096L230.04 52.8472L230.937 52.8847L230.999 57.829C231.062 62.3477 231.087 62.8108 231.298 63.2113C231.996 64.5131 232.918 65.1765 234.55 65.527C235.921 65.8149 235.846 65.8524 236.905 64.4881L237.852 63.2739L236.992 63.1988C235.896 63.0862 234.924 62.5855 234.588 61.9596C234.376 61.5591 234.363 61.1961 234.388 57.2031L234.426 52.8847L235.148 52.8472C236.245 52.7846 237.204 53.0099 237.752 53.4605L238.226 53.836V52.3215V50.8194H236.295H234.363V48.5038V46.1881H233.553H232.744V46.7764Z" fill="#183861"/>
<path d="M256.342 50.3312C253.439 50.8194 250.86 52.9848 250.025 55.6385C249.663 56.8025 249.639 59.2434 249.987 60.395C250.598 62.4478 251.931 64.075 253.713 64.9637C255.158 65.6772 256.23 65.8774 258.223 65.8023C260.877 65.7022 262.397 65.0763 264.092 63.3991C265.786 61.7218 266.334 60.2197 266.222 57.5786C266.135 55.2504 265.549 53.836 264.067 52.359C263.095 51.4077 261.637 50.6441 260.242 50.3813C259.183 50.181 257.376 50.156 256.342 50.3312ZM259.594 52.8346C263.518 54.3116 263.83 61.3087 260.042 63.1737C259.444 63.4742 259.207 63.5242 258.285 63.5117C256.878 63.4992 256.03 63.1737 255.046 62.2475C254.51 61.7593 254.161 61.2837 253.837 60.6077L253.364 59.6564V57.904C253.376 56.3644 253.414 56.0515 253.663 55.4257C254.136 54.2115 255.37 53.0474 256.541 52.6844C257.201 52.4842 258.871 52.5593 259.594 52.8346Z" fill="#183861"/>
<path d="M137.74 50.6066C137.241 50.7693 136.481 50.8695 135.472 50.907L133.952 50.9696L134.376 51.4077C134.662 51.6956 134.837 52.0461 134.924 52.4592C135.073 53.1351 135.111 63.0486 134.986 63.8622C134.936 64.1251 134.725 64.5507 134.475 64.8385L134.039 65.3392H136.805H139.559L139.185 64.8636C138.575 64.1 138.537 63.6745 138.575 58.9305L138.612 54.5996L138.986 54.1114C139.197 53.8485 139.696 53.473 140.095 53.2728C140.73 52.9473 140.967 52.8972 141.901 52.8972C143.097 52.8847 143.72 53.06 144.306 53.5481C145.016 54.149 145.029 54.2741 145.029 59.1683C145.029 61.7343 144.979 63.8372 144.904 64.075C144.842 64.3128 144.605 64.7009 144.381 64.9262L143.982 65.3392H146.823H149.676L149.327 64.9888C148.592 64.2753 148.592 64.2127 148.517 58.7678L148.455 53.7609L148.106 53.0099C147.246 51.1574 145.714 50.3688 143.035 50.3938C141.988 50.4063 141.577 50.4689 140.979 50.6942C140.157 51.0072 139.397 51.4953 138.923 52.0085L138.612 52.3465L138.55 51.3576L138.487 50.3688L137.74 50.6066Z" fill="#183861"/>
<path d="M185.335 50.5941C184.862 50.7568 184.102 50.8695 183.254 50.907L181.921 50.9821L182.308 51.4578C182.656 51.8959 182.706 52.0586 182.806 53.2227C182.98 55.1128 182.868 63.6745 182.669 64.1501C182.582 64.3504 182.345 64.7134 182.121 64.9262L181.734 65.3392H184.55H187.366L187.017 64.9637C186.369 64.2628 186.332 63.9749 186.332 59.7691C186.332 55.2379 186.394 54.8374 187.192 54.0113C187.74 53.4355 188.338 53.1977 189.198 53.1977C189.846 53.1977 190.606 53.4104 191.042 53.7234L191.378 53.9612V52.2464V50.544L190.232 50.5941C189.247 50.6317 188.936 50.7068 188.176 51.0572C187.69 51.2825 187.104 51.6581 186.88 51.8959C186.656 52.1337 186.419 52.3215 186.369 52.3215C186.319 52.3215 186.27 51.8708 186.27 51.3201C186.27 50.7693 186.232 50.3187 186.182 50.3312C186.12 50.3438 185.746 50.4564 185.335 50.5941Z" fill="#183861"/>
<path d="M197.421 50.6066C196.935 50.7568 196.137 50.8695 195.141 50.907L193.596 50.9696L193.969 51.3702C194.692 52.1337 194.68 51.971 194.717 57.5161C194.767 63.687 194.742 64.0249 194.169 64.776L193.745 65.3392H196.499H199.252L198.879 64.9011C198.667 64.6633 198.43 64.2628 198.368 63.9999C198.156 63.2364 198.193 55.0502 198.405 54.537C198.617 54.0113 199.464 53.2728 200.062 53.0975C201.383 52.697 202.915 52.8096 203.738 53.3604C203.962 53.5106 204.273 53.8861 204.435 54.199C204.71 54.7373 204.71 54.8374 204.71 59.1433C204.71 61.8094 204.66 63.712 204.573 63.9999C204.51 64.2628 204.273 64.6633 204.062 64.9011L203.688 65.3392H206.516H209.357L209.045 65.0889C208.871 64.9512 208.622 64.6007 208.497 64.3128C208.285 63.8247 208.261 63.2739 208.198 58.8303C208.136 53.9988 208.123 53.8736 207.837 53.1351C207.438 52.1337 206.504 51.1949 205.544 50.8444C203.912 50.2311 202.056 50.1936 200.536 50.7443C199.751 51.0322 198.38 51.9585 198.33 52.2464C198.318 52.3215 198.28 51.9334 198.243 51.3702L198.168 50.3688L197.421 50.6066Z" fill="#183861"/>
<path d="M244.206 50.5315C243.895 50.6317 242.96 50.7443 242.113 50.7819L240.581 50.857L240.942 51.245C241.141 51.4578 241.378 51.7582 241.453 51.9084C241.64 52.2714 241.652 63.6745 241.453 64.1751C241.39 64.3629 241.154 64.7134 240.929 64.9262L240.543 65.3392H243.396H246.25L245.789 64.8636C245.44 64.5131 245.303 64.2252 245.203 63.7245C245.128 63.324 245.078 60.4826 245.078 56.6899C245.078 51.6706 245.041 50.3187 244.929 50.3312C244.842 50.3438 244.518 50.4314 244.206 50.5315Z" fill="#183861"/>
<path d="M273.549 50.6066C273.063 50.7693 272.278 50.8695 271.343 50.907L269.873 50.9696L270.234 51.3952C270.446 51.6205 270.67 52.0211 270.733 52.2839C270.92 52.9348 270.92 63.6995 270.733 64.1751C270.67 64.3629 270.434 64.7134 270.209 64.9262L269.823 65.3392H272.689C274.67 65.3267 275.48 65.2892 275.33 65.2015C275.206 65.139 274.956 64.8135 274.77 64.4881L274.421 63.8998V59.331C274.421 55.2129 274.446 54.7247 274.632 54.3617C274.894 53.8986 275.48 53.423 276.177 53.11C276.838 52.8221 278.844 52.8221 279.479 53.11C280.015 53.3479 280.675 54.0613 280.8 54.5495C280.862 54.7373 280.9 56.8526 280.9 59.2684C280.9 64.05 280.875 64.2878 280.189 64.9637L279.816 65.3392H282.656H285.497L285.111 64.9262C284.899 64.7134 284.675 64.3379 284.588 64.1C284.5 63.8121 284.451 62.2475 284.451 59.4061C284.451 57.0404 284.388 54.7748 284.314 54.3242C283.952 52.0211 282.557 50.7568 280.027 50.4189C278.046 50.1685 276.165 50.6817 274.932 51.8208L274.371 52.3465L274.333 51.3576L274.296 50.3688L273.549 50.6066Z" fill="#183861"/>
<path d="M169.437 50.7568C166.77 51.4077 164.69 53.473 164.017 56.1016C163.768 57.0404 163.743 59.0306 163.967 59.9694C164.652 62.986 167.169 65.1139 170.733 65.7273C171.966 65.94 174.695 65.8149 175.542 65.5145C176.202 65.2892 176.24 65.2391 177.074 63.8998C177.548 63.1362 178.009 62.3602 178.121 62.1724L178.308 61.8219L177.336 62.3101C175.841 63.0611 174.882 63.349 173.611 63.4241C171.567 63.5493 169.923 63.0861 169.1 62.1474C168.403 61.3463 167.705 59.8943 167.618 59.0431L167.543 58.3297H172.938H178.333L178.258 57.103C178.071 53.7484 176.414 51.4953 173.598 50.7693C172.664 50.519 170.421 50.519 169.437 50.7568ZM173.137 53.1351C173.897 53.6107 174.446 54.4744 174.533 55.3256L174.595 55.9514H171.194H167.805L167.879 55.5383C168.004 54.8624 168.614 53.811 169.088 53.423C169.786 52.8597 170.371 52.697 171.518 52.722C172.39 52.7595 172.602 52.8096 173.137 53.1351Z" fill="#183861"/>
<path d="M217.63 50.7318C217.057 50.882 216.995 50.9446 215.923 52.4842C215.3 53.3604 214.802 54.0989 214.802 54.1239C214.802 54.149 215.263 54.0113 215.836 53.811C217.78 53.1476 219.35 52.9348 220.309 53.1977C221.841 53.6358 222.24 55.4007 220.944 56.0641C220.67 56.2018 219.487 56.5147 218.29 56.765C215.076 57.441 213.817 58.0543 213.095 59.2935C212.783 59.8442 212.746 60.007 212.746 61.0834C212.746 62.1224 212.783 62.3602 213.095 62.9735C213.282 63.3615 213.73 63.9624 214.092 64.3128C215.425 65.5646 216.783 65.9651 218.639 65.6397C219.237 65.5395 219.761 65.4143 219.811 65.3643C220.01 65.1515 221.393 63.1613 221.355 63.1237C221.331 63.0987 220.932 63.1738 220.458 63.2864C217.58 63.9624 215.462 62.3602 216.422 60.2323C216.621 59.7817 216.783 59.644 217.456 59.3185C218.041 59.0431 221.38 58.0793 221.742 58.0793C221.754 58.0793 221.779 59.1934 221.779 60.5452C221.779 61.9096 221.841 63.2364 221.916 63.4992C222.29 64.8511 224.259 66.0026 225.754 65.7398C226.202 65.6647 226.339 65.5395 227.137 64.463L228.021 63.2739L227.224 63.1863C226.389 63.1112 225.816 62.8734 225.505 62.5104C225.367 62.3351 225.318 61.4339 225.268 57.7163C225.193 52.5217 225.243 52.7721 224.146 51.7832C223.125 50.857 222.439 50.6567 220.159 50.6191C218.926 50.5941 218.016 50.6317 217.63 50.7318Z" fill="#183861"/>
<path d="M293.795 50.7192C293.259 50.8319 293.197 50.8945 292.088 52.4841C291.465 53.3979 290.967 54.1489 290.979 54.1614C290.992 54.1865 291.34 54.0613 291.752 53.9111C293.72 53.135 296 52.8972 296.96 53.3728C298.218 53.9987 298.218 55.6259 296.96 56.1516C296.735 56.2518 295.627 56.5146 294.505 56.7525C291.602 57.3783 290.543 57.8164 289.646 58.8178C289.185 59.331 288.811 60.3198 288.811 61.0333C288.811 62.8733 290.182 64.7759 292.013 65.4644C292.86 65.7898 294.368 65.8273 295.352 65.552C295.926 65.4018 296.038 65.3016 296.773 64.2877C297.209 63.6869 297.533 63.1737 297.508 63.1362C297.471 63.1111 297.059 63.1737 296.586 63.2864C294.941 63.6744 293.334 63.2864 292.699 62.3226C292.449 61.9596 292.412 61.7718 292.449 61.0583C292.487 60.3824 292.549 60.1571 292.798 59.8817C293.297 59.3435 294.592 58.8428 296.611 58.3922C297.084 58.2921 297.595 58.1794 297.757 58.1293L298.031 58.0542V60.7204C298.031 63.1612 298.056 63.4241 298.293 63.9247C298.716 64.8009 299.713 65.4894 300.884 65.7147C302.056 65.94 302.28 65.8148 303.264 64.5131C303.738 63.8747 304.136 63.3239 304.136 63.2989C304.136 63.2613 303.787 63.2113 303.351 63.1862C302.467 63.1111 301.856 62.8483 301.62 62.4227C301.495 62.2224 301.433 60.9332 301.383 57.516C301.345 54.9625 301.308 52.8722 301.296 52.8722C301.283 52.8596 301.096 52.6343 300.884 52.3715C300.237 51.5454 299.377 50.9821 298.417 50.7693C297.446 50.544 294.729 50.5189 293.795 50.7192Z" fill="#183861"/>
<path d="M48.7914 64.3629C41.3905 69.7953 37.9018 72.4114 38.014 72.474C38.3255 72.6492 65.076 81.3611 65.1258 81.3111C65.1632 81.2735 59.9302 56.9403 59.7683 56.4271C59.7558 56.377 54.8218 59.9569 48.7914 64.3629Z" fill="#183861"/>
<path d="M62.5466 57.7914C62.5591 57.9792 67.8793 82.2498 67.9167 82.2873C67.9665 82.3249 97.4208 91.963 100.909 93.0771C102.454 93.5778 102.567 93.5903 102.28 93.3274C102.118 93.1647 94.3807 86.2302 85.0983 77.9064C75.816 69.595 66.9448 61.6341 65.3874 60.2322C63.8175 58.8303 62.5466 57.7288 62.5466 57.7914Z" fill="#183861"/>
<path d="M267.755 73.6005C266.895 73.9385 265.45 74.1388 264.603 74.0386L263.855 73.9635L264.304 74.4767C264.64 74.8773 264.765 75.1527 264.827 75.6533C264.864 76.0038 264.889 80.1094 264.864 84.7658L264.827 93.2273L264.428 93.8031L264.017 94.3789H266.646H269.275L268.951 94.0034C268.403 93.34 268.365 92.9144 268.403 88.1955L268.44 83.7769L268.776 83.2762C269.25 82.5503 270.259 82.0871 271.493 82.012C272.963 81.9244 273.96 82.325 274.57 83.2262C274.857 83.6518 274.857 83.6768 274.857 88.1704C274.857 90.7615 274.807 92.8769 274.732 93.1147C274.67 93.3525 274.433 93.7405 274.209 93.9658L273.81 94.3789H276.589H279.355L279.043 93.9658C278.433 93.1647 278.42 93.1022 278.358 87.7449C278.283 82.7505 278.283 82.6629 277.984 82.0245C277.174 80.2096 274.67 79.1456 271.916 79.4585C270.633 79.6087 270.097 79.8341 269.076 80.6727L268.378 81.236L268.353 77.3056L268.315 73.3752L267.755 73.6005Z" fill="#183861"/>
<path d="M214.864 73.8133C214.515 73.9135 213.655 74.0011 212.92 74.0136L211.6 74.0386L211.961 74.4893C212.148 74.7271 212.372 75.1276 212.434 75.3655C212.621 75.9913 212.596 92.4638 212.422 93.0145C212.347 93.2524 212.11 93.6529 211.911 93.9033L211.55 94.3789H214.316H217.094L216.708 93.9658C215.948 93.1647 215.985 93.7906 215.948 83.2637C215.911 74.2389 215.898 73.6005 215.699 73.6131C215.587 73.6131 215.213 73.7007 214.864 73.8133Z" fill="#183861"/>
<path d="M236.606 73.7257C233.728 74.0136 231.535 75.3279 230.588 77.3181C230.214 78.1067 230.189 78.2569 230.189 79.4835C230.189 80.6977 230.214 80.8604 230.588 81.6365C231.012 82.5502 231.859 83.489 232.743 84.0523C233.042 84.24 234.214 84.7908 235.347 85.2664C238.587 86.6433 239.783 87.4194 240.169 88.4333C240.83 90.1857 239.21 91.9255 236.768 92.0883C235.048 92.2134 232.208 91.4248 230.551 90.3859C230.114 90.1106 229.753 89.9478 229.753 90.0355C229.766 90.1231 230.002 91.0619 230.289 92.1258L230.812 94.066L231.448 94.2662C233.03 94.7794 236.257 94.9672 237.976 94.6417C239.696 94.3163 241.59 93.2899 242.586 92.1634C242.861 91.8379 243.272 91.2121 243.496 90.7614C243.882 89.9729 243.895 89.8727 243.895 88.4207C243.895 86.9938 243.87 86.8811 243.521 86.1802C243.247 85.642 242.923 85.2539 242.337 84.7908C241.166 83.827 240.456 83.4389 238.138 82.4376C234.587 80.898 233.827 80.2596 233.827 78.7576C233.827 77.0052 235.908 75.8911 238.55 76.2291C239.559 76.3543 240.306 76.6922 241.502 77.5684L242.088 78.0065V76.129V74.2639L241.378 74.0637C239.771 73.613 238.587 73.5379 236.606 73.7257Z" fill="#183861"/>
<path d="M326.564 73.8133C326.19 73.901 325.305 74.0011 324.607 74.0136C323.897 74.0261 323.324 74.0512 323.324 74.0762C323.324 74.1012 323.511 74.3391 323.735 74.6269L324.134 75.1276L324.171 83.852C324.196 89.8978 324.171 92.7141 324.072 93.0396C323.997 93.2899 323.76 93.703 323.561 93.9408L323.175 94.3789H325.941H328.707L328.27 93.8782C328.034 93.5903 327.809 93.1898 327.76 92.977C327.722 92.7642 327.685 88.3206 327.685 83.101C327.685 74.1263 327.672 73.6005 327.473 73.6131C327.348 73.6256 326.937 73.7132 326.564 73.8133Z" fill="#183861"/>
<path d="M124.209 74.289C124.421 74.5393 124.707 74.9524 124.844 75.2278C125.081 75.7034 125.094 75.9538 125.094 83.7895C125.094 89.1342 125.044 92.0758 124.956 92.5013C124.869 92.9019 124.645 93.3525 124.333 93.7531L123.848 94.3789H128.545C134.513 94.3789 136.257 94.1786 138.114 93.2524C139.671 92.4888 141.465 90.6113 142.35 88.8088C143.21 87.0439 143.347 86.4055 143.347 83.9271C143.347 82.0746 143.309 81.6741 143.06 80.7979C142.313 78.2193 140.817 76.492 138.238 75.2278C135.908 74.0887 134.127 73.8634 127.536 73.8509H123.823L124.209 74.289ZM134.002 76.6547C136.668 77.3682 138.512 79.0955 139.247 81.5489C139.534 82.4877 139.571 85.2039 139.31 86.2428C138.662 88.8839 136.756 90.8241 134.052 91.5751C133.441 91.7503 132.781 91.8004 131.261 91.8129C130.165 91.8129 129.168 91.7754 129.056 91.7253C128.844 91.6377 128.831 91.162 128.831 84.1274V76.6172L129.243 76.492C129.841 76.3042 133.105 76.4169 134.002 76.6547Z" fill="#183861"/>
<path d="M149.14 74.1388C148.156 74.4642 147.645 75.1777 147.645 76.2041C147.645 76.9927 147.869 77.4808 148.418 77.9064C149.227 78.5197 150.336 78.4822 151.096 77.8188C151.881 77.1178 152.093 76.1415 151.645 75.2528C151.345 74.6645 151.022 74.3766 150.423 74.1513C149.85 73.951 149.713 73.951 149.14 74.1388Z" fill="#183861"/>
<path d="M176.85 74.0886C176.065 74.2889 175.505 74.8897 175.318 75.7534C175.143 76.5295 175.343 77.1804 175.941 77.7561C176.489 78.2819 176.962 78.4196 177.772 78.2944C178.52 78.1817 179.355 77.3932 179.479 76.6922C179.778 75.09 178.383 73.7006 176.85 74.0886Z" fill="#183861"/>
<path d="M20.8947 84.8033L6.4541 95.3802H37.3786C62.0733 95.3802 68.2906 95.3427 68.2408 95.23C68.2159 95.1424 67.6676 92.664 67.0322 89.7225C66.3843 86.781 65.8361 84.3151 65.7862 84.24C65.7239 84.1524 36.4815 74.5017 35.572 74.289C35.3851 74.2389 31.4977 77.0302 20.8947 84.8033Z" fill="#183861"/>
<path d="M186.606 76.3918C186.457 78.9829 185.535 80.197 183.379 80.6601C183.055 80.7352 183.03 80.7853 183.03 81.3611V81.987H183.965H184.899V86.418C184.899 88.8588 184.961 91.1369 185.024 91.4999C185.186 92.3261 185.784 93.2899 186.444 93.7655C187.005 94.1786 188.126 94.5666 189.148 94.6918L189.833 94.7794L190.792 93.5778C191.316 92.9269 191.752 92.3636 191.752 92.3386C191.752 92.3136 191.378 92.251 190.917 92.2259C189.845 92.1508 188.861 91.6752 188.55 91.0869C188.35 90.7239 188.325 90.2232 188.288 86.3304L188.251 81.9619L189.684 82.012C191.079 82.0495 191.116 82.0621 191.615 82.4626L192.126 82.8757V81.3611V79.8591H190.194H188.263V77.5434V75.2277H187.466H186.681L186.606 76.3918Z" fill="#183861"/>
<path d="M289.995 79.3208C288.188 79.5711 286.506 80.4223 285.198 81.7366C283.628 83.3012 283.03 84.7782 283.042 87.1189C283.042 89.3845 283.653 91.0368 285.011 92.4762C285.921 93.4526 286.805 94.0158 288.089 94.4664C289.297 94.892 291.864 95.0047 293.297 94.7043C296.088 94.1034 298.417 92.1007 299.227 89.5723C299.501 88.7211 299.564 88.3206 299.564 87.1189C299.576 84.6405 298.978 83.0383 297.471 81.5238C295.938 79.9842 293.895 79.2081 291.453 79.2457C290.855 79.2582 290.207 79.2957 289.995 79.3208ZM292.935 81.8993C293.87 82.2873 294.455 82.788 295.041 83.6642C295.664 84.5779 295.913 85.3916 296 86.7559C296.25 90.6362 293.658 93.2773 290.431 92.4512C287.64 91.7252 286.07 88.8087 286.693 85.4792C286.992 83.8645 288.126 82.4 289.472 81.8743C290.418 81.5113 292.013 81.5238 292.935 81.8993Z" fill="#183861"/>
<path d="M309.494 79.4084C307.675 79.7964 305.893 80.7978 304.822 82.0245C303.601 83.4264 303.015 85.0661 303.015 87.1314C303.015 89.4346 303.7 91.187 305.195 92.689C306.217 93.7154 307.201 94.2536 308.746 94.6417C310.142 95.0047 312.696 94.9296 314.042 94.504C316.509 93.7279 318.278 92.0632 319.187 89.6474C319.474 88.8963 319.511 88.6335 319.511 87.0563C319.511 85.4666 319.486 85.2163 319.175 84.3276C318.365 82.0119 316.733 80.3972 314.428 79.6587C313.17 79.2582 310.79 79.133 309.494 79.4084ZM313.132 81.9744C314.403 82.5877 315.412 83.8519 315.786 85.3039C316.023 86.2552 316.023 88.1078 315.774 89.0591C315.412 90.4735 314.515 91.6501 313.381 92.2134C312.758 92.5138 312.522 92.5638 311.55 92.5638C310.553 92.5638 310.341 92.5263 309.581 92.1633C307.388 91.1119 306.242 88.6961 306.616 85.9298C306.902 83.8519 308.036 82.3123 309.668 81.7866C310.478 81.5112 312.409 81.6239 313.132 81.9744Z" fill="#183861"/>
<path d="M150.636 79.5712C150.324 79.6713 149.39 79.784 148.555 79.8215L147.022 79.8966L147.359 80.2847C148.019 81.0732 148.019 81.0607 148.019 87.0189C148.019 90.6613 147.969 92.7392 147.882 93.0646C147.807 93.3275 147.558 93.7405 147.334 93.9658L146.923 94.3789H149.726H152.529L152.156 93.9408C151.944 93.703 151.707 93.3024 151.645 93.0396C151.558 92.7392 151.508 90.1857 151.508 85.9549C151.508 80.7603 151.47 79.3584 151.358 79.3709C151.271 79.3834 150.947 79.4711 150.636 79.5712Z" fill="#183861"/>
<path d="M178.295 79.5587C177.984 79.6713 177.037 79.784 176.152 79.8215L174.558 79.8966L174.994 80.3473C175.243 80.5976 175.492 80.9981 175.554 81.236C175.729 81.8493 175.716 92.4262 175.542 93.0396C175.48 93.2899 175.218 93.703 174.981 93.9408L174.545 94.3789H177.361H180.189L179.753 93.8782C179.517 93.5903 179.292 93.1898 179.242 92.977C179.205 92.7642 179.168 89.6224 179.168 85.9799C179.168 80.7603 179.13 79.3584 179.018 79.3709C178.931 79.3709 178.607 79.4585 178.295 79.5587Z" fill="#183861"/>
<path d="M254.672 79.6087C250.885 79.9717 247.857 82.5752 247.247 85.9924C246.648 89.3595 248.218 92.3761 251.42 93.9908C252.716 94.6542 253.887 94.9045 255.669 94.9171C256.89 94.9296 257.463 94.867 258.348 94.6542L259.469 94.3663L260.553 92.6515C261.139 91.7127 261.625 90.9241 261.612 90.9116C261.6 90.8991 261.027 91.1744 260.341 91.5124C258.784 92.2885 257.625 92.5513 256.168 92.4637C253.863 92.326 251.881 91.0117 251.171 89.1467C250.623 87.7072 250.723 85.6043 251.408 84.3276C251.869 83.4639 253.015 82.4375 253.825 82.1621C255.208 81.6865 257.426 81.9869 258.485 82.8005C258.709 82.9758 258.921 83.1134 258.958 83.1134C258.996 83.1134 259.033 82.4125 259.033 81.5613V80.0092L258.198 79.8215C257.114 79.5711 255.856 79.496 254.672 79.6087Z" fill="#183861"/>
<path d="M170.446 79.7965C169.399 79.9967 167.044 80.0218 163.842 79.8465C161.637 79.7339 161.164 79.7339 160.354 79.9091C157.089 80.5976 155.083 83.3263 155.794 86.1301C156.255 87.9326 157.812 89.3094 160.105 89.9478L160.865 90.1731L161.724 89.3094C162.21 88.8338 162.547 88.4082 162.497 88.3581C162.447 88.3206 162.16 88.1829 161.849 88.0703C161.126 87.8074 159.893 86.8686 159.569 86.3804C159.444 86.1677 159.307 85.667 159.27 85.2414C159.183 84.2525 159.444 83.5391 160.167 82.8757C162.011 81.1733 165.3 82.1997 165.848 84.6656C166.235 86.4055 165.35 87.7448 162.883 89.1968C161.724 89.8727 161.475 90.1481 161.475 90.7239C161.475 91.3372 161.986 92.1383 162.596 92.4888C162.945 92.6891 163.381 92.7642 164.353 92.8267C166.309 92.9394 167.294 93.4651 168.054 94.7544C168.34 95.2175 168.39 95.4678 168.39 96.1938C168.378 97.2077 168.091 97.8836 167.431 98.4469C165.711 99.9114 161.998 99.999 159.943 98.6347C158.485 97.6583 158.36 96.0436 159.693 95.3176L160.291 95.0047L158.983 95.0673C157.127 95.18 156.441 95.3927 155.731 96.1062C155.009 96.8322 154.872 97.408 155.183 98.4594C155.544 99.7111 156.765 100.687 158.821 101.376C162.173 102.515 166.783 102.052 169.362 100.337C170.384 99.6611 171.368 98.5345 171.704 97.6709C172.078 96.682 172.165 95.1424 171.891 94.2161C171.393 92.4888 169.997 91.4999 167.418 91.0618C164.976 90.6488 164.901 90.2858 167.007 89.1592C168.851 88.1954 169.462 87.3067 169.549 85.5293C169.599 84.5029 169.574 84.3151 169.287 83.7018C169.113 83.3138 168.714 82.763 168.403 82.4501L167.829 81.9118L169.175 81.9619C170.483 82.012 170.521 82.012 170.658 81.7241C170.745 81.5614 171.032 81.0106 171.306 80.5099C171.879 79.4835 171.929 79.5211 170.446 79.7965Z" fill="#183861"/>
<path d="M199.24 79.7339C198.929 79.7965 198.605 79.9217 198.517 80.0093C198.343 80.1845 196.25 83.1636 196.275 83.1886C196.287 83.2011 196.86 83.0259 197.546 82.7881C199.701 82.0621 201.271 81.9494 202.293 82.4376C203.202 82.8757 203.501 84.0022 202.903 84.7282C202.517 85.1663 201.931 85.3791 199.851 85.8047C196.96 86.393 195.851 86.8561 194.979 87.845C193.683 89.3345 193.907 91.6877 195.527 93.3024C196.81 94.5917 198.293 95.0548 200.1 94.7043C200.66 94.6042 201.196 94.4415 201.296 94.3664C201.545 94.1536 202.866 92.2385 202.803 92.1759C202.779 92.1509 202.392 92.2134 201.956 92.3261C200.374 92.7392 198.63 92.3261 198.019 91.3873C197.521 90.6363 197.67 89.3095 198.318 88.7212C198.654 88.4082 200.013 87.9201 201.744 87.4945C202.567 87.2817 203.277 87.119 203.289 87.119C203.314 87.119 203.339 88.3081 203.339 89.7726C203.339 92.2009 203.364 92.4638 203.601 92.9645C204.174 94.1536 205.868 95.0173 207.227 94.8045C207.675 94.7294 207.8 94.6042 208.634 93.5027L209.556 92.2885L208.722 92.226C207.8 92.1509 207.164 91.888 206.928 91.4624C206.803 91.2621 206.753 89.9979 206.703 86.6183C206.653 83.3889 206.591 81.9745 206.491 81.7867C206.155 81.1984 204.872 80.1595 204.199 79.9342C203.426 79.6713 200.174 79.5336 199.24 79.7339Z" fill="#183861"/>
<path d="M68.5272 85.2038C68.5272 85.2664 69.0256 87.5571 69.6237 90.3108L70.7201 95.3176L85.3475 95.3552C93.3839 95.3677 99.9501 95.3552 99.9127 95.3302C99.8379 95.2551 68.7889 85.1162 68.6394 85.1162C68.5771 85.1162 68.5272 85.1538 68.5272 85.2038Z" fill="#183861"/>
</svg>
